#!OML:ASF F:\VICON\USERDATA\INSTALL\rory3\rory3.ASF
:FULLY-SPECIFIED
:DEGREES
269
root -4.15396 17.8331 14.3955 131.96 82.7817 131.472
lowerback 12.4148 1.27451 -3.806
upperback 0.279593 1.12982 -0.928417
thorax -6.73494 0.677448 0.961429
lowerneck -19.8797 -6.19525 -11.8876
upperneck 29.483 -6.78787 7.5271
head 14.1165 -3.08036 3.8768
rclavicle -3.97569e-015 3.18055e-015
rhumerus -35.0743 -16.1258 -76.6199
rradius 33.7177
rwrist 4.22171
rhand -15.2384 10.526
rfingers 7.12502
rthumb 10.9348 -19.1692
lclavicle -3.97569e-015 3.18055e-015
lhumerus -32.1214 1.58706 86.6932
lradius 40.2605
lwrist -2.56158
lhand -17.9107 27.2518
lfingers 7.12502
lthumb 8.35649 57.0665
rfemur -22.5581 -6.3411 11.2723
rtibia 65.9129
rfoot -8.85306 -4.18143
rtoes -2.4526
lfemur -3.49014 4.08806 -32.2757
ltibia 15.958
lfoot -8.59528 -11.0492
ltoes 11.8304
270
root -4.03004 17.8073 14.4019 131.828 82.6259 131.324
lowerback 12.3845 1.21267 -4.02464
upperback 0.30175 1.01849 -0.950987
thorax -6.69279 0.629447 1.08175
lowerneck -19.937 -6.16318 -11.9764
upperneck 29.4036 -6.75586 7.68008
head 14.1007 -3.05635 3.95791
rclavicle -7.0817e-015 -5.56597e-015
rhumerus -35.2055 -16.3 -76.6938
rradius 33.3291
rwrist 4.67845
rhand -15.1439 10.4146
rfingers 7.12502
rthumb 11.026 -19.2758
lclavicle -7.0817e-015 -5.56597e-015
lhumerus -31.6484 0.970833 86.825
lradius 41.0639
lwrist -1.90809
lhand -20.0379 27.9606
lfingers 7.12502
lthumb 6.30321 57.8468
rfemur -23.6459 -6.10188 11.3301
rtibia 65.1249
rfoot -9.48072 -4.43359
rtoes -3.18041
lfemur -3.39995 4.02859 -32.3559
ltibia 16.6753
lfoot -9.39512 -11.0067
ltoes 12.2242
271
root -3.9069 17.7767 14.4079 132.223 82.4795 131.789
lowerback 12.4744 1.13055 -4.12212
upperback 0.313178 0.888707 -1.0134
thorax -6.72528 0.569323 1.09292
lowerneck -19.9711 -6.14116 -11.9677
upperneck 29.4089 -6.74763 7.74995
head 14.1116 -3.04211 3.98692
rclavicle 4.38569e-014 -1.82882e-014
rhumerus -35.3825 -16.562 -76.802
rradius 32.8723
rwrist 5.28359
rhand -15.205 10.3455
rfingers 7.12502
rthumb 10.9671 -19.348
lclavicle 4.38569e-014 -1.82882e-014
lhumerus -31.3427 0.311521 86.8503
lradius 41.8492
lwrist -1.23151
lhand -21.6316 27.3456
lfingers 7.12502
lthumb 4.76453 57.272
rfemur -24.533 -5.98551 11.4209
rtibia 64.129
rfoot -10.1331 -4.68849
rtoes -3.27351
lfemur -3.17705 3.76813 -32.3821
ltibia 17.3218
lfoot -10.1703 -10.678
ltoes 11.8379
272
root -3.78015 17.7515 14.4145 132.513 82.2828 132.157
lowerback 12.5642 1.10081 -4.32086
upperback 0.321196 0.814628 -1.06101
thorax -6.76585 0.540128 1.16668
lowerneck -19.949 -6.13669 -11.8133
upperneck 29.3792 -6.77778 7.6863
head 14.0872 -3.04647 3.92752
rclavicle -1.38155e-014 1.25234e-014
rhumerus -35.5881 -16.8652 -76.8374
rradius 32.461
rwrist 5.5566
rhand -15.0439 10.4001
rfingers 7.12502
rthumb 11.1224 -19.2851
lclavicle -1.38155e-014 1.25234e-014
lhumerus -30.9695 -0.168564 86.9358
lradius 42.4613
lwrist -0.912122
lhand -22.0017 26.9713
lfingers 7.12502
lthumb 4.40714 56.9054
rfemur -25.3032 -5.78476 11.4475
rtibia 62.8949
rfoot -10.9709 -4.85187
rtoes -2.80828
lfemur -2.91807 3.17676 -32.4746
ltibia 17.9685
lfoot -10.9512 -9.96068
ltoes 11.5656
273
root -3.64984 17.7428 14.4195 132.886 82.171 132.553
lowerback 12.5652 1.08022 -4.52354
upperback 0.337528 0.761238 -1.03073
thorax -6.74955 0.520855 1.32278
lowerneck -19.9721 -6.12957 -11.6538
upperneck 29.3344 -6.76707 7.51886
head 14.0561 -3.04684 3.83075
rclavicle 1.93815e-014 1.43125e-014
rhumerus -35.7832 -17.0937 -76.8067
rradius 32.0847
rwrist 5.68824
rhand -15.0176 10.4887
rfingers 7.12502
rthumb 11.1478 -19.1952
lclavicle 1.93815e-014 1.43125e-014
lhumerus -30.47 -0.310908 87.0439
lradius 42.9685
lwrist -0.922765
lhand -21.7051 26.6617
lfingers 7.12502
lthumb 4.69356 56.5897
rfemur -26.02 -5.48656 11.5538
rtibia 61.4597
rfoot -11.7866 -5.08548
rtoes -2.8555
lfemur -2.60822 2.60923 -32.4271
ltibia 18.4213
lfoot -11.3324 -9.59063
ltoes 14.0519
274
root -3.52002 17.7523 14.4238 133.336 82.0968 132.923
lowerback 12.4865 1.03692 -4.64785
upperback 0.340069 0.690068 -1.04433
thorax -6.69995 0.48911 1.39244
lowerneck -19.9814 -6.15957 -11.6509
upperneck 29.1964 -6.82477 7.55403
head 14.0065 -3.06839 3.82842
rclavicle 1.37907e-014 -8.54774e-015
rhumerus -35.9565 -17.2819 -76.8924
rradius 31.7345
rwrist 5.85289
rhand -15.2736 10.3889
rfingers 7.12502
rthumb 10.9008 -19.3081
lclavicle 1.37907e-014 -8.54774e-015
lhumerus -30.0298 -0.670076 87.0644
lradius 43.5488
lwrist -0.744786
lhand -21.6378 26.5723
lfingers 7.12502
lthumb 4.75853 56.4989
rfemur -26.7174 -5.26164 11.711
rtibia 59.7787
rfoot -12.022 -5.55422
rtoes -3.39571
lfemur -2.33348 2.00007 -32.2627
ltibia 18.7316
lfoot -10.9818 -9.85369
ltoes 20.5908
